<svg xmlns="http://www.w3.org/2000/svg" viewBox="0 0 61 61"><title>hit</title><circle cx="30.5" cy="30.5" r="30.5" fill="#fff"/><path d="M20,18.27c-.92,2.68-1.72,5.38-2.47,8.09a50,50,0,0,1-1-8.72c0-.43-1.94-.11-1.93.52A58,58,0,0,0,16.37,30.6c-1.2,4.58-2.31,9.18-3.58,13.77-.11.39,1.77.14,1.9-.34.9-3.26,1.73-6.53,2.56-9.8.81,3.2,1.64,6.41,2.27,9.66.1.51,2,0,1.93-.52-.86-4.46-2.12-8.84-3.15-13.25C19.38,26,20.51,22,21.89,17.93,22,17.57,20.15,17.78,20,18.27Z" fill="#231f20"/><path d="M34.4,18.8c0-1-1.92-.79-2,.13,0,.08,0,.16,0,.24a.71.71,0,0,0-.1.2,135.51,135.51,0,0,1-4.06,13.06c-.64,1.93-1.14,3.9-1.67,5.86-.14-6.62-.14-13.24-.17-19.87,0-1-2-.77-2,.13,0,8.34,0,16.64.3,25a.64.64,0,0,0,0,.3l.06.44c.12.86,2,.48,1.94-.32l0,0c1.64-4.17,2.48-8.59,3.89-12.84.52-1.56,1-3.11,1.56-4.66-.07,6,.06,12,.21,18,0,1,1.58.77,1.91.06l.06-.12a.51.51,0,0,0,0-.56C34.18,35.43,34,27.13,34.4,18.8Z" fill="#231f20"/><path d="M47.32,17.66a53.67,53.67,0,0,1-9.48,0c-.49,0-2.24.85-1.22.91s2.18.11,3.27.15a.36.36,0,0,0-.16.26c.29,8.41-1.05,17.24.19,25.56.06.42,2,0,1.93-.52-1.23-8.23.07-17-.19-25.27A42.13,42.13,0,0,0,47,18.54C47.86,18.43,48.67,17.5,47.32,17.66Z" fill="#231f20"/></svg>