<?xml version="1.0" encoding="utf-8"?>
<!-- Generator: Adobe Illustrator 21.0.0, SVG Export Plug-In . SVG Version: 6.00 Build 0)  -->
<svg version="1.1" id="Слой_1" xmlns="http://www.w3.org/2000/svg" xmlns:xlink="http://www.w3.org/1999/xlink" x="0px" y="0px"
	 viewBox="0 0 108 39" style="enable-background:new 0 0 108 39;" xml:space="preserve">
<style type="text/css">
	.st0{fill:#FFFFFF;}
</style>
<title>logo-htmlacademy-small</title>
<g>
	<path class="st0" d="M44.6,28.4c0.2,0,0.4,0,0.6-0.1v1.4c-0.4,0.1-0.8,0.2-1.2,0.2c-0.7,0.1-1.4-0.3-1.7-1c-0.9,0.8-2,1.2-3.1,1.1
		c-1.5,0-2.9-0.9-2.9-2.7c0-2.2,2-2.9,3.7-2.9c0.7,0,1.5,0.1,2.2,0.3v-0.3c0-1.1-0.8-1.9-2.2-1.9c-1,0-2.1,0.2-3,0.7v-1.8
		c1-0.4,2.1-0.6,3.2-0.6c2.4,0,3.8,1.2,3.8,3.8v3.1c0,0.3,0.2,0.6,0.5,0.6L44.6,28.4z M38.1,27.1c0.1,0.8,0.7,1.4,1.5,1.3h0.1
		c0.9,0,1.8-0.3,2.4-1v-1.5c-0.6-0.1-1.2-0.2-1.8-0.2C39.3,25.7,38.1,26.1,38.1,27.1L38.1,27.1z"/>
	<path class="st0" d="M50.5,20.8c0.9,0,1.8,0.2,2.6,0.7v1.8c-0.7-0.5-1.5-0.7-2.3-0.7c-1.5-0.1-2.8,1-3,2.6c-0.1,1.6,1,3,2.5,3.1
		c0.2,0,0.3,0,0.5,0c0.9,0,1.7-0.2,2.4-0.7v1.8c-0.9,0.4-1.8,0.6-2.8,0.6c-2.3,0.2-4.3-1.7-4.5-4.1c0,0,0,0,0,0c0-0.1,0-0.3,0-0.4
		c-0.1-2.5,1.8-4.6,4.2-4.7H50.5z"/>
	<path class="st0" d="M62.7,28.4c0.2,0,0.4,0,0.6-0.1v1.4c-0.4,0.1-0.8,0.2-1.2,0.2c-0.7,0.1-1.4-0.3-1.7-1c-0.9,0.8-2,1.2-3.1,1.1
		c-1.5,0-2.9-0.9-2.9-2.7c0-2.2,2-2.9,3.7-2.9c0.7,0,1.5,0.1,2.2,0.3v-0.3c0-1.1-0.8-1.9-2.2-1.9c-1,0-2.1,0.2-3,0.7v-1.8
		c1-0.4,2.1-0.6,3.2-0.6c2.4,0,3.8,1.2,3.8,3.8v3.1c0,0.3,0.2,0.6,0.5,0.6L62.7,28.4z M56.2,27.1c0.1,0.8,0.7,1.4,1.5,1.3h0.1
		c0.9,0,1.8-0.3,2.4-1v-1.5c-0.6-0.1-1.2-0.2-1.8-0.2C57.3,25.7,56.2,26.1,56.2,27.1L56.2,27.1z"/>
	<path class="st0" d="M73,17v12.8h-1.7v-1.4c-0.8,1-1.9,1.7-3.2,1.6c-2.4-0.2-4.3-2.4-4.1-4.9c0.1-2.3,1.9-4.2,4.1-4.3
		c1.1,0,2.2,0.5,3,1.4V17H73L73,17z M68.4,22.5c-1.5,0-2.8,1.3-2.8,2.9c0,1.6,1.2,2.9,2.8,2.9c1.2,0,2.2-0.7,2.7-1.8v-2.1
		C70.6,23.2,69.6,22.5,68.4,22.5z"/>
	<path class="st0" d="M79,20.8c3.3,0,4.5,2.8,3.9,5.3h-6.3c0.2,1.6,1.7,2.2,3.2,2.2c0.9,0,1.8-0.2,2.6-0.6v1.7c-0.9,0.4-2,0.6-3,0.6
		c-2.6,0-4.8-1.5-4.8-4.6c-0.1-2.4,1.7-4.5,4-4.6c0,0,0,0,0,0L79,20.8z M79.1,22.4c-1.3-0.1-2.3,0.9-2.4,2.2c0,0,0,0,0,0v0.1h4.6
		c0.1-1.1-0.7-2.1-1.7-2.3C79.4,22.4,79.2,22.4,79.1,22.4z"/>
	<path class="st0" d="M84.8,29.7V21h1.6v1.1c0.7-0.8,1.7-1.3,2.8-1.3c1-0.1,2,0.5,2.6,1.4c0.8-0.9,1.8-1.4,2.9-1.4
		c1.7-0.1,3.1,1.3,3.2,3.1c0,0.1,0,0.3,0,0.4v5.5H96v-5.4c0.1-0.9-0.5-1.7-1.4-1.8h-0.2c-0.8,0.1-1.5,0.5-2,1.2v6.1h-1.9v-5.4
		c0.1-0.9-0.5-1.7-1.4-1.8h-0.2c-0.9,0.1-1.7,0.6-2.2,1.4v5.9L84.8,29.7L84.8,29.7z"/>
	<path class="st0" d="M106.1,21h1.9l-3.9,9.9c-1,2.3-2.1,3-3.4,3c-0.4,0-0.7-0.1-1.1-0.2v-1.6c0.3,0.1,0.6,0.1,0.8,0.1
		c1,0,1.6-0.7,2.1-2l0.2-0.4l-4-8.8h2l2.9,6.6L106.1,21z"/>
	<path class="st0" d="M38.7,1.7v5c0.7-0.8,1.7-1.2,2.7-1.2c1.8-0.1,3.3,1.3,3.4,3.2c0,0.1,0,0.2,0,0.4v5.4h-1.9V9.3
		c0.1-1-0.6-2-1.6-2.1c0,0,0,0,0,0H41c-1,0.1-1.8,0.6-2.3,1.5v5.8h-1.9V1.7H38.7z"/>
	<path class="st0" d="M49.9,2.6v3.1h3v1.7h-3v4c0,1.1,0.5,1.5,1.6,1.5c0.6,0,1.1-0.1,1.7-0.4v1.7c-0.7,0.3-1.5,0.4-2.2,0.4
		c-1.4,0.2-2.7-0.9-2.8-2.3c0-0.2,0-0.4,0-0.5V7.4h-1.5V5.7H48V3L49.9,2.6z"/>
	<path class="st0" d="M55.3,14.4V5.7h1.6v1.1c0.7-0.8,1.7-1.3,2.8-1.3c1-0.1,2,0.5,2.6,1.4c0.8-0.9,1.8-1.4,2.9-1.4
		c1.7-0.1,3.1,1.3,3.2,3.1c0,0.1,0,0.3,0,0.4v5.5h-1.9V9c0.1-0.9-0.5-1.8-1.4-1.9c0,0,0,0-0.1,0h-0.2c-0.8,0.1-1.6,0.5-2,1.2v6.1
		h-1.9V9c0.1-0.9-0.5-1.8-1.4-1.9c0,0-0.1,0-0.1,0h-0.2c-0.9,0.1-1.7,0.6-2.2,1.3v5.9L55.3,14.4L55.3,14.4z"/>
	<rect x="71.1" y="1.7" class="st0" width="1.9" height="12.8"/>
	<path class="st0" d="M14.7,0.1h-0.2L0,1.8v28l14.5,9.1l14.5-9.1v-28L14.7,0.1z M27.2,28.6l-12.6,7.9L1.9,28.6V17.1L14.5,25v1.4
		L5.9,21v1.4l8.7,5.5v1.5l-8.7-5.4v1.4l8.7,5.5l0,0l8.7-5.5v-1.4l0,0v-4.5l3.9-2.5C27.2,16.9,27.2,28.6,27.2,28.6z M27.2,15.4
		l-3.5,2.1l0,0l-1.6,1l-7.6-4.8v1.4l6.5,4.1h-0.1l-0.1,0.1l-1,0.6l-5.4-3.4V18l4.2,2.6l-1,0.7l0,0l-3.2-2v1.4l2.1,1.3l-2.2,1.4
		L2,15.5l12.5-7.9l0,0L27.2,15.4z M27.2,14.1L14.5,6.1l0,0L1.9,14V3.5l12.6-1.4l12.6,1.4L27.2,14.1L27.2,14.1z"/>
</g>
</svg>
