<svg xmlns="http://www.w3.org/2000/svg" viewBox="0 0 154 64"><title>Logo-main</title><path d="M59.29,42.76a3.89,3.89,0,0,0-2.15.37s-3,2.51-17.84-.38c-10.91-2.13-16.58-1.92-16.58-1.92s1.83-12.5,1.33-16A1,1,0,0,0,23,23.92c-1.08,0-1.75.42-1.75,1A46.45,46.45,0,0,1,21,32a6,6,0,0,1-6.17,3.92C10,35.58,9,32.17,8.63,29.83S8,21,9.22,18.33c0,0,7.17.25,11.67-3.58S25.13,7.58,23,6.17,15.88,5,12,8.5A19.51,19.51,0,0,0,7,15.5S1.34,14.29,2.63,8.42C4,2.28,12.39,3,12.39,3c1.75.33,1.82.5,2.41-.08S15.8.83,13,.75,2,2,.47,7.5c-1.68,5.83,1.43,10,5.62,10.64,0,0-2.29,10.11.55,15.11a8.89,8.89,0,0,0,8.6,4.92c1.66,0,4.57-.92,5.41-2.25,0,0-.39,3.58-.72,4.88,0,0-6.93-.1-9.11,1-3.69,1.92-2.92,6.48-1.5,8.1,1.2,1.38,4.81,2.13,7.42.9a9.91,9.91,0,0,0,5.55-7.7A39.66,39.66,0,0,1,34.8,44.5c6.17,1.83,14.76,3.56,17.34,3.56s8-.74,8.33-2.89C60.65,43.73,60.13,43,59.29,42.76ZM15.86,9.33s3.28-2.5,4.84-.94a2.14,2.14,0,0,1,.09,2.81c-.66.87-2.4,3.59-10.66,4.94C10.14,16.14,12.74,11.58,15.86,9.33Zm.27,38.91s-4.53,2.47-5-.87a3.15,3.15,0,0,1,1.69-3.57c.8-.39,1.88-.88,6.58-.71A6.31,6.31,0,0,1,16.13,48.23Z" fill="#fff"/><path d="M73.58,24.48q0,3.38,0,6.77a.86.86,0,0,0,0,.11,5.68,5.68,0,0,1-.86,2.54,5.56,5.56,0,0,1-1.18,1.46c-.53.47-.88-.56-1.08-1-1.39-2.92-.73-6.81-.19-9.86.26-1.45-2.71-1.08-2.94.22a29.16,29.16,0,0,0-.55,7.91,1.85,1.85,0,0,0-1.34.74c-.51,1.09-2,4.7-3.83,3.26-1.32-1-1.46-3.74-1.6-5.27a15.63,15.63,0,0,1,.82-6.27c-.06.17,1.14-2.82,1.67-1.7a3.6,3.6,0,0,1-.61,3.12c-1.57,1.18.88,1.67,1.82,1,1.8-1.36,3-5.71-.07-6.23-3.46-.58-5.44,2.92-6.16,5.7a18,18,0,0,0-.5,4.89c-.48.83-2.1,3.53-3,4-1.12.58-1.1-.23-1.06-.75s.54-5.15.81-8.27a5.81,5.81,0,0,0-.5-3.65c-.44-.87-4-2.83-7.15.83a11.9,11.9,0,0,0-3.08,7.05c-.21.42-.44.87-.71,1.36-1.5,2.75-3.38,3.91-4.06,2a15.42,15.42,0,0,1-.75-6.19A38.5,38.5,0,0,0,42.47,16.5C44,9.75,43.72,6.44,42.91,5.87s-4.25-1.94-6.31,6.25A53.24,53.24,0,0,0,35,30c-.32.68-.72,1.5-1.23,2.43-1.5,2.75-3.38,3.91-4.06,2A15.42,15.42,0,0,1,29,28.25,38.5,38.5,0,0,0,34.05,16.5c1.56-6.75,1.25-10.06.44-10.63s-4.25-1.94-6.31,6.25-2.47,17.13-.5,23.13c0,0,1.08,3.38,3.1,3.13,1.67-.21,3.66-1.85,4.83-4.91.14.62.3,1.22.49,1.78,0,0,1.08,3.38,3.1,3.13,1.38-.17,3-1.32,4.14-3.42.71,1.84,2.24,3.34,4.21,3,2.67-.48,3.22-1.93,3.22-1.93s-.05,2.38,1.66,2.38c1.53,0,2.73-.89,3.94-3.16.41-.77.64-1.22.77-1.48.36,2.14,1.24,4.06,3,4.83,3,1.3,5.62-1.17,7.17-3.61a4.29,4.29,0,0,0,2.46,2.62,3.72,3.72,0,0,0,3.77-.93c0,1.17,0,2.35,0,3.52a2.61,2.61,0,0,0-1.55.42,11.73,11.73,0,0,0-4.19,10.52,3.24,3.24,0,0,0,4.72,2.66c3.1-1.35,3.57-6,3.83-8.84.63-6.83.14-13.94.14-20.79C76.48,22.85,73.58,23.45,73.58,24.48ZM30.25,13.28c.69-2.66,1.33-3.72,2-3.72s.94.72.47,3-2,8.63-4.09,12.75C28.58,25.31,29.56,15.94,30.25,13.28Zm8.42,0c.69-2.66,1.33-3.72,2-3.72s.94.72.47,3-2,8.63-4.09,12.75C37,25.31,38,15.94,38.67,13.28ZM51.53,25.71a63.27,63.27,0,0,1-1,6.29c-.5,2-1,2.78-2.58,3.44S45.55,34,45.55,34c-1.15-3.21.4-6,1.67-7.92s2.57-2.1,3.31-2A1.36,1.36,0,0,1,51.53,25.71Zm22,18.06a18.06,18.06,0,0,1-1.58,7.81c-.7.15-1-.12-1.24-1.24a10.73,10.73,0,0,1,0-3.25,9,9,0,0,1,2.78-5.15C73.51,42.54,73.51,43.15,73.5,43.76Z" fill="#fff"/><path d="M92.3,21.65a10.78,10.78,0,0,1-5.72-6C85.31,11.82,89.51,9,92.86,9.18s5.14,3.62,5,6.71c-.06,1.09-.75,3.56-2.1,2.28a6.43,6.43,0,0,1-1.57-3.63c-.19-1.21-3.1-.49-2.9.78.58,3.66,4.53,7.69,7.9,3.86A7.35,7.35,0,0,0,96.59,7.94a10.23,10.23,0,0,0-12.53,4.33c-2.73,4.85,2.75,9.6,6.63,11.32,6.22,3.34,6.46,14.05-1.82,14.13a8.35,8.35,0,0,1-7.69-5.61c-.57-1.69-.28-7.55,2-8,1.81-.35,1.31-2-.45-1.69-3.71.73-5.08,5.51-4.72,8.86.58,5.34,5.58,8.34,10.63,8.3A9.57,9.57,0,0,0,98.28,32,9.34,9.34,0,0,0,92.3,21.65Z" fill="#fff"/><path d="M110.88,37.53C108,36,109.66,30,110.09,27.66c.28-1.49,1.56-3.79-.49-4.3-2.39-.58-5.22,1.69-7.28,3.86a50.45,50.45,0,0,1,.55-7.48,15.63,15.63,0,0,0,7.18-7.4c1.29-2.6,1.94-8-2.46-6.42-4,1.4-5.38,6-6.62,9.69A29.26,29.26,0,0,0,99.88,20c-.4.16-.8.31-1.22.44-1.66.51-1.44,1.41.24.89l.81-.26c-.79,5.61-.26,11.49.25,17,0,.54,3,0,2.9-.78-.23-2.47-.41-4.92-.5-7.36a1.43,1.43,0,0,0,.63-.39,22.56,22.56,0,0,1,3.08-3.18q.45-.39.92-.75l.46-.34c.67-.53.8-.54.38,0a26.58,26.58,0,0,1-.62,2.83c-.55,3-2.13,8.89,1.35,10.78C109.3,39.25,112,38.13,110.88,37.53Zm-6.49-24.1c.31-.9.71-1.77,1.09-2.64.47-1.08,1.73-4.77,2.64-3,.73,1.4-.43,3.72-.94,5.07a11.86,11.86,0,0,1-4,5.3A36.63,36.63,0,0,1,104.39,13.43Z" fill="#fff"/><path d="M121.64,30.53c0-3.29-.37-7.51-4.3-7.86-4.31-.39-6,4.12-6.06,7.49a.6.6,0,0,0,.35.57c0,3.15.76,7.26,4.51,7.2C120.31,37.85,121.63,34.21,121.64,30.53Zm-5,5.47c-2.44-1-2.22-5.2-2.05-7.24a.54.54,0,0,0-.25-.52c.3-2,1.08-5,2.86-3.51,1.42,1.21,1.44,4.15,1.52,5.83C118.78,31.71,118.62,36.79,116.64,36Z" fill="#fff"/><path d="M153.13,48.58c-1.13-2.89-3.59-4-6.29-4.13a12,12,0,0,0-1.13-2.08c-3.91-5.79-13.19-5-19.47-1.95,0-.91-.09-1.82-.13-2.73a7.32,7.32,0,0,0,6.5-3c1.68-2.4,1.43-6.63.78-9.31-.62-2.52-3.09-2.07-4.93-1.23a7.7,7.7,0,0,0-1.86,1.26c.06-.67.11-1.34.16-2,.11-1.54-2.84-1.15-2.94.2-.45,6.2-.3,12.37-.44,18.54A14.76,14.76,0,0,0,118,54.2c0,2.27,1.93,4,4,2.39,2.89-2.22,3.77-6.63,4.17-10a31.74,31.74,0,0,0,.16-4.53,14,14,0,0,1,15.2-.1,7,7,0,0,1,2.26,2.7,18.27,18.27,0,0,0-4.61,1.48c-1.71.83-4.26,2.76-4.13,4.94a3,3,0,0,0,2.28,3,1.26,1.26,0,0,0,.3.08c6.13,1,10.7-2.63,9.83-7.74,3,1.63,4.11,5.4,3,8.66-2.39,7.3-11.58,8.93-16.95,4.05-.57-.52-3.18.58-2.73,1C138.57,67.2,157.85,60.65,153.13,48.58Zm-29.94-1.78A15.5,15.5,0,0,1,122,51.95q-.37.82-.8,1.6s-.26.06-.32-.72a14.39,14.39,0,0,1,2.35-7.89C123.25,45.56,123.23,46.18,123.19,46.81Zm3.13-17.86a.77.77,0,0,0,.15-.17,14.38,14.38,0,0,1,1.91-2.51,7.77,7.77,0,0,1,1.8-1.54c.32.16.65,1,.78,2.13.3,2.77.44,10.1-3.94,9.41a2.37,2.37,0,0,0-.95.17v0C126,33.92,126.14,31.43,126.32,28.95ZM139.4,52.69h-.05c-1.69-.4-1.5-2-1.29-3.09.49-2.52,3.58-3.88,6.12-4C145.46,49.21,144.47,53.51,139.4,52.69Z" fill="#fff"/></svg>
