<svg xmlns="http://www.w3.org/2000/svg" viewBox="0 0 113.47 38.69"><title>logo-htmlacademy-small</title><path d="M46.84,28.22a2.07,2.07,0,0,0,.58-.11v1.4a3.41,3.41,0,0,1-1.24.22,1.75,1.75,0,0,1-1.75-1,5.08,5.08,0,0,1-3.3,1.13c-1.59,0-3.06-.87-3.06-2.68,0-2.24,2.08-2.93,3.9-2.93a11.63,11.63,0,0,1,2.28.26V24.2c0-1.09-.8-1.86-2.3-1.86A7.79,7.79,0,0,0,38.8,23V21.22a10.72,10.72,0,0,1,3.35-.58c2.48,0,4,1.18,4,3.83v3.14a.57.57,0,0,0,.51.62ZM40.08,27a1.42,1.42,0,0,0,1.53,1.3h.11a3.56,3.56,0,0,0,2.53-1V25.81a10.21,10.21,0,0,0-1.9-.22c-1.1,0-2.27.35-2.27,1.45Z" transform="translate(0 -0.02)" fill="#fff"/><path d="M53.06,20.62a5.29,5.29,0,0,1,2.7.67v1.79a4.28,4.28,0,0,0-2.42-.73,2.89,2.89,0,1,0,0,5.76,5.26,5.26,0,0,0,2.55-.67v1.8a6.58,6.58,0,0,1-2.9.6,4.42,4.42,0,0,1-4.71-4.11q0-.22,0-.43a4.54,4.54,0,0,1,4.39-4.68Z" transform="translate(0 -0.02)" fill="#fff"/><path d="M65.84,28.22a2.07,2.07,0,0,0,.58-.11v1.4a3.41,3.41,0,0,1-1.24.22,1.75,1.75,0,0,1-1.75-1,5.08,5.08,0,0,1-3.3,1.13c-1.59,0-3.06-.87-3.06-2.68,0-2.24,2.08-2.93,3.9-2.93a11.63,11.63,0,0,1,2.28.26V24.2c0-1.09-.8-1.86-2.3-1.86A7.79,7.79,0,0,0,57.8,23V21.22a10.72,10.72,0,0,1,3.35-.58c2.48,0,4,1.18,4,3.83v3.14a.57.57,0,0,0,.51.62ZM59.08,27a1.42,1.42,0,0,0,1.53,1.3h.11a3.56,3.56,0,0,0,2.53-1V25.81a10.21,10.21,0,0,0-1.9-.22c-1.11,0-2.27.35-2.27,1.45Z" transform="translate(0 -0.02)" fill="#fff"/><path d="M76.67,16.85V29.61H74.91V28.22a4.07,4.07,0,0,1-3.35,1.62,4.62,4.62,0,0,1,0-9.22A4,4,0,0,1,74.71,22V16.85h2Zm-4.76,5.48a2.9,2.9,0,0,0,0,5.8,3,3,0,0,0,2.79-1.84V24.16A3.06,3.06,0,0,0,71.91,22.33Z" transform="translate(0 -0.02)" fill="#fff"/><path d="M83,20.62c3.48,0,4.68,2.81,4.12,5.34H80.53c.22,1.57,1.75,2.22,3.35,2.22a6.41,6.41,0,0,0,2.77-.62v1.68a7.5,7.5,0,0,1-3.14.6c-2.68,0-5-1.53-5-4.61a4.39,4.39,0,0,1,4.16-4.61Zm.09,1.62a2.39,2.39,0,0,0-2.57,2.2v.06h4.85a2.06,2.06,0,0,0-2.28-2.26Z" transform="translate(0 -0.02)" fill="#fff"/><path d="M89.1,29.61V20.86h1.73v1.09a4,4,0,0,1,2.92-1.33A3,3,0,0,1,96.48,22a4.33,4.33,0,0,1,3.06-1.4,3.21,3.21,0,0,1,3.32,3.52v5.47h-2V24.2a1.67,1.67,0,0,0-1.49-1.83h-.24A2.94,2.94,0,0,0,97,23.54v6.07H95V24.2a1.67,1.67,0,0,0-1.49-1.83h-.24a3.11,3.11,0,0,0-2.32,1.35v5.91H89.1Z" transform="translate(0 -0.02)" fill="#fff"/><path d="M111.47,20.86h2l-4.1,9.93c-1,2.28-2.19,3-3.52,3a5,5,0,0,1-1.15-.15V32a3,3,0,0,0,.89.13c1,0,1.66-.67,2.17-2l.18-.44-4.16-8.82h2.13l3,6.6Z" transform="translate(0 -0.02)" fill="#fff"/><path d="M40.66,1.53v5a4,4,0,0,1,2.83-1.2A3.41,3.41,0,0,1,47.1,8.9v5.41h-2V9.15a1.9,1.9,0,0,0-1.69-2.09H43.1a3.08,3.08,0,0,0-2.44,1.46v5.8h-2V1.53h2Z" transform="translate(0 -0.02)" fill="#fff"/><path d="M52.43,2.42V5.54H55.6V7.25H52.43v4c0,1.15.53,1.53,1.66,1.53a4.71,4.71,0,0,0,1.77-.35v1.68a7.14,7.14,0,0,1-2.35.38,2.68,2.68,0,0,1-3-2.88V7.23h-1.6V5.52h1.57V2.88Z" transform="translate(0 -0.02)" fill="#fff"/><path d="M58.1,14.29V5.54h1.73V6.63A4,4,0,0,1,62.75,5.3a3,3,0,0,1,2.73,1.4,4.33,4.33,0,0,1,3.06-1.4,3.21,3.21,0,0,1,3.32,3.52v5.47h-2V8.88A1.67,1.67,0,0,0,68.37,7h-.24A2.94,2.94,0,0,0,66,8.22v6.07H64V8.88A1.67,1.67,0,0,0,62.47,7h-.24a3.11,3.11,0,0,0-2.32,1.35V14.3H58.1Z" transform="translate(0 -0.02)" fill="#fff"/><rect x="74.72" y="1.5" width="1.95" height="12.76" fill="#fff"/><path d="M15.44,0h-.16L0,1.62v28l15.28,9.09,15.28-9.09v-28ZM28.56,28.47l-13.28,7.9L2,28.47V17l13.22,7.87v1.43l-9.07-5.4v1.38l9.11,5.47V29.2l-9.1-5.42v1.38l9.11,5.47h0l9.19-5.5V23.74h0V19.22l4.1-2.45v11.7Zm0-13.16-3.65,2.14h0l-1.68,1-8-4.76v1.38l6.84,4.07H22l-.15.09-1,.57-5.64-3.36v1.38l4.45,2.65-1,.7h0l-3.36-2v1.38l2.21,1.3L15.22,23.2,2.06,15.38,15.23,7.46h0Zm0-1.39L15.21,6h0L2,13.91V3.41L15.29,2,28.57,3.41V13.92Z" transform="translate(0 -0.02)" fill="#fff"/></svg>