<svg xmlns="http://www.w3.org/2000/svg" viewBox="0 0 79.04 139.85"><title>map-pin-icecream</title><path d="M40,7.1A28.28,28.28,0,0,1,64.55,49.43,9.29,9.29,0,1,1,54,59.94L53,60.52a13.14,13.14,0,0,1-25.94,0L26,59.94A9.29,9.29,0,1,1,15.45,49.43,28.28,28.28,0,0,1,40,7.1m0-7a35.28,35.28,0,0,0-33.62,46A16.26,16.26,0,0,0,25.44,72.38a20.22,20.22,0,0,0,29.11,0A16.27,16.27,0,0,0,73.62,46.1,35.28,35.28,0,0,0,40,.1Z" transform="translate(-0.48 -0.1)" fill="#e84d37"/><path d="M63.23,78.91a20.06,20.06,0,0,1-8-1.68c-.37.3-.76.57-1.15.85l.53.53-3.9,3.9L49,80.83q-1,.41-2.1.73l2.36,2.36-3.9,3.9-3.9-3.9L43,82.36a22.07,22.07,0,0,1-5.93,0l1.54,1.54-3.9,3.9-3.9-3.9,2.34-2.34q-1.07-.31-2.1-.72L29.42,82.5l-3.9-3.9.49-.49c-.41-.29-.81-.57-1.2-.89a20.06,20.06,0,0,1-8,1.68c-.2,0-.4,0-.6,0a3.47,3.47,0,0,0,.16,1.62l20.38,57.13c0,.07.06.13.09.19l.09.21a3.28,3.28,0,0,0,.24.4l.08.13a3.47,3.47,0,0,0,.41.46l.1.08a3.61,3.61,0,0,0,.39.29l.18.1a3.38,3.38,0,0,0,.43.2l.11.05.06,0,.39.1.16,0a3.31,3.31,0,0,0,1.12,0l.17,0a3.14,3.14,0,0,0,.38-.1l.06,0,.11-.05a3.6,3.6,0,0,0,.42-.2l.18-.11a3.67,3.67,0,0,0,.39-.29l.1-.09a3.54,3.54,0,0,0,.41-.46l.08-.12a3.51,3.51,0,0,0,.24-.4l.09-.2c0-.07.06-.13.09-.2L63.67,80.5a3.47,3.47,0,0,0,.16-1.62C63.63,78.88,63.43,78.91,63.23,78.91Zm-14,15.63-3.9,3.9-3.9-3.9,3.9-3.9ZM36.14,99.85,40,96l3.9,3.9-3.9,3.9Zm7.8,10.63-3.9,3.9-3.9-3.9,3.9-3.9ZM40,85.33l3.9,3.9L40,93.13l-3.9-3.9Zm-1.41,9.21-3.9,3.9-3.9-3.9,3.9-3.9ZM23.72,80.4,24.1,80l3.9,3.9-2.23,2.23Zm2.79,7.83,2.9-2.9,3.9,3.9-3.9,3.9-1.79-1.79Zm2.79,7.83.1-.11,3.9,3.9-2,2Zm4.2,11.79-1.41-4,2.63-2.62,3.9,3.9-3.9,3.9Zm3.43,9.62-1.86-5.22,3.54,3.54ZM40,126l-2.31-6.48L40,117.2l2.29,2.29Zm3.07-8.62-1.62-1.62,3.42-3.42ZM46.44,108l-1.08,1.08-3.9-3.9,3.9-3.9,2.56,2.56Zm2.22-6.23-1.89-1.89,3.9-3.9,0,0Zm3.67-10.28-1.66,1.66-3.9-3.9,3.9-3.9,2.84,2.84Zm1.92-5.38-2.17-2.17L56,80l.32.32Z" transform="translate(-0.48 -0.1)" fill="#e84d37"/></svg>