<svg xmlns="http://www.w3.org/2000/svg" viewBox="0 0 560 220"><title>postofice-bg</title><path d="M560,205a15,15,0,0,1-15,15H15A15,15,0,0,1,0,205V15A15,15,0,0,1,15,0H545a15,15,0,0,1,15,15Z" fill="#f8f7f4"/><path d="M545,0H20.73L0,20.73V205a15,15,0,0,0,15,15H545a15,15,0,0,0,15-15V15A15,15,0,0,0,545,0Z" fill="#f8f7f4"/><path d="M10.25.79A15.11,15.11,0,0,0,.79,10.25Z" fill="#f8f7f4"/><path d="M20.74,0H15a14.85,14.85,0,0,0-4.74.78L.78,10.26A14.85,14.85,0,0,0,0,15v5.74Z" fill="#92cdff"/><polygon points="0 40.12 40.12 0 30.42 0 0 30.42 0 40.12" fill="#fe9e90"/><polygon points="0 59.5 59.5 0 49.81 0 0 49.81 0 59.5" fill="#92cdff"/><polygon points="0 78.89 78.89 0 69.2 0 0 69.2 0 78.89" fill="#fe9e90"/><polygon points="0 98.28 98.28 0 88.58 0 0 88.58 0 98.28" fill="#92cdff"/><polygon points="0 117.67 117.67 0 107.97 0 0 107.97 0 117.67" fill="#fe9e90"/><polygon points="0 137.05 137.05 0 127.36 0 0 127.36 0 137.05" fill="#92cdff"/><polygon points="0 156.44 156.44 0 146.75 0 0 146.75 0 156.44" fill="#fe9e90"/><polygon points="0 175.83 175.83 0 166.13 0 0 166.13 0 175.83" fill="#92cdff"/><polygon points="0 195.21 195.21 0 185.52 0 0 185.52 0 195.21" fill="#fe9e90"/><path d="M204.91,0,0,204.91V205a14.86,14.86,0,0,0,2.06,7.54L214.6,0Z" fill="#92cdff"/><path d="M14,220,234,0h-9.69L6.78,217.52A14.89,14.89,0,0,0,14,220Z" fill="#fe9e90"/><polygon points="33.38 220 253.38 0 243.68 0 23.68 220 33.38 220" fill="#92cdff"/><polygon points="52.76 220 272.76 0 263.07 0 43.07 220 52.76 220" fill="#fe9e90"/><polygon points="72.15 220 292.15 0 282.45 0 62.45 220 72.15 220" fill="#92cdff"/><polygon points="91.54 220 311.54 0 301.84 0 81.84 220 91.54 220" fill="#fe9e90"/><polygon points="110.92 220 330.92 0 321.23 0 101.23 220 110.92 220" fill="#92cdff"/><polygon points="130.31 220 350.31 0 340.62 0 120.62 220 130.31 220" fill="#fe9e90"/><polygon points="149.7 220 369.7 0 360 0 140 220 149.7 220" fill="#92cdff"/><polygon points="169.08 220 389.08 0 379.39 0 159.39 220 169.08 220" fill="#fe9e90"/><polygon points="188.47 220 408.47 0 398.78 0 178.78 220 188.47 220" fill="#92cdff"/><polygon points="207.86 220 427.86 0 418.16 0 198.16 220 207.86 220" fill="#fe9e90"/><polygon points="227.25 220 447.25 0 437.55 0 217.55 220 227.25 220" fill="#92cdff"/><polygon points="246.63 220 466.63 0 456.94 0 236.94 220 246.63 220" fill="#fe9e90"/><polygon points="266.02 220 486.02 0 476.32 0 256.32 220 266.02 220" fill="#92cdff"/><polygon points="285.41 220 505.41 0 495.71 0 275.71 220 285.41 220" fill="#fe9e90"/><polygon points="304.79 220 524.79 0 515.1 0 295.1 220 304.79 220" fill="#92cdff"/><polygon points="324.18 220 544.18 0 534.49 0 314.49 220 324.18 220" fill="#fe9e90"/><path d="M343.57,220,557.22,6.35a15.18,15.18,0,0,0-5.14-4.56L333.87,220Z" fill="#92cdff"/><path d="M363,220,560,23V15a14.85,14.85,0,0,0-.1-1.64L353.26,220Z" fill="#fe9e90"/><polygon points="382.34 220 560 42.34 560 32.65 372.65 220 382.34 220" fill="#92cdff"/><polygon points="401.73 220 560 61.73 560 52.04 392.04 220 401.73 220" fill="#fe9e90"/><polygon points="421.12 220 560 81.12 560 71.42 411.42 220 421.12 220" fill="#92cdff"/><polygon points="440.5 220 560 100.5 560 90.81 430.81 220 440.5 220" fill="#fe9e90"/><polygon points="459.89 220 560 119.89 560 110.2 450.2 220 459.89 220" fill="#92cdff"/><polygon points="479.28 220 560 139.28 560 129.58 469.58 220 479.28 220" fill="#fe9e90"/><polygon points="498.67 220 560 158.66 560 148.97 488.97 220 498.67 220" fill="#92cdff"/><polygon points="518.05 220 560 178.05 560 168.36 508.36 220 518.05 220" fill="#fe9e90"/><polygon points="537.44 220 560 197.44 560 187.75 527.75 220 537.44 220" fill="#92cdff"/><path d="M559.8,207.34,547.33,219.8A15,15,0,0,0,559.8,207.34Z" fill="#fe9e90"/></svg>