<svg xmlns="http://www.w3.org/2000/svg" viewBox="0 0 49 49"><title>seo_leaf</title><path d="M24.5,0A24.5,24.5,0,1,0,49,24.5,24.5,24.5,0,0,0,24.5,0Zm0,47A22.5,22.5,0,1,1,47,24.5,22.53,22.53,0,0,1,24.5,47Z" fill="#323232"/><path d="M34.81,26.76c-.45-9.49-9.2-18.69-9.59-19.1l0,0-.12-.09-.13-.08-.05,0-.08,0-.15,0h-.29l-.16,0-.08,0,0,0-.13.08-.12.09,0,0c-.39.4-9.14,9.61-9.59,19.11a1,1,0,0,0,0,.2c0,.36,0,.73,0,1.09.37,10.26,10,12.82,10.08,12.85a1,1,0,0,0,.49,0c.1,0,9.71-2.59,10.07-12.85,0-.36,0-.73,0-1.09A1.08,1.08,0,0,0,34.81,26.76Zm-18-3.51a24.83,24.83,0,0,0,6.72,4.09v4.55c-2.45-1.2-6.22-3.34-7.3-5.23A17.06,17.06,0,0,1,16.78,23.25Zm2-5.1a12.4,12.4,0,0,0,4.69,3.06v3.94a19.15,19.15,0,0,1-6-4A29.16,29.16,0,0,1,18.81,18.15Zm12.71,3a19.18,19.18,0,0,1-6,4V21.21a12.38,12.38,0,0,0,4.69-3.06A29.18,29.18,0,0,1,31.52,21.11ZM25.5,19V11a45.24,45.24,0,0,1,3.65,5.23A9,9,0,0,1,25.5,19Zm0,12.85V27.34a24.82,24.82,0,0,0,6.72-4.09,17.07,17.07,0,0,1,.58,3.42C31.72,28.55,27.95,30.69,25.5,31.89ZM23.5,19a8.92,8.92,0,0,1-3.65-2.78A45.38,45.38,0,0,1,23.5,11ZM16.38,29.83a33.55,33.55,0,0,0,7.12,4.28v4.4A11.72,11.72,0,0,1,16.38,29.83Zm9.12,8.7V34.11a33.59,33.59,0,0,0,7.12-4.28A11.58,11.58,0,0,1,25.5,38.52Z" fill="#323232"/></svg>