<svg xmlns="http://www.w3.org/2000/svg" viewBox="0 0 49 49"><title>seo_icecream</title><path d="M24.5,0A24.5,24.5,0,1,0,49,24.5,24.5,24.5,0,0,0,24.5,0Zm0,47A22.5,22.5,0,1,1,47,24.5,22.53,22.53,0,0,1,24.5,47Z" fill="#323232"/><path d="M24.5,7.63a8.5,8.5,0,0,0-8.44,7.5H16V32H33V15.13h-.06A8.5,8.5,0,0,0,24.5,7.63ZM31,30H18V20.78a1.81,1.81,0,0,0,1.54.63c1.29,0,2.13-.71,2.13-1.62v-.87h0a.85.85,0,1,1,1.71,0v3.33a1.88,1.88,0,0,0,2.13,1.83,1.87,1.87,0,0,0,2.13-1.75V20.08h0a1.34,1.34,0,0,1,2.69,0,.36.36,0,0,0,0,.09,1.11,1.11,0,0,0,.67.89v9Z" fill="#323232"/><path d="M23,40.13a1.5,1.5,0,0,0,3,0V33H23Z" fill="#323232"/></svg>