<svg xmlns="http://www.w3.org/2000/svg" viewBox="0 0 49 49"><title>seo_thermometer</title><path d="M24.5,0A24.5,24.5,0,1,0,49,24.5,24.5,24.5,0,0,0,24.5,0Zm0,47A22.5,22.5,0,1,1,47,24.5,22.53,22.53,0,0,1,24.5,47Z" fill="#323232"/><path d="M28.94,13.13a5,5,0,0,0-10.06,0V27.76a7,7,0,0,0-2,4.92,7.13,7.13,0,1,0,12.06-5.13Zm.19,19.56a5.13,5.13,0,1,1-8.25-4V13.13a3,3,0,1,1,6.06,0V28.5A5.11,5.11,0,0,1,29.13,32.69Z" fill="#323232"/><path d="M25,29.56V13.19a1,1,0,0,0-2,0V29.56a3,3,0,1,0,2,0Z" fill="#323232"/><rect x="31" y="12" width="6" height="2" fill="#323232"/><rect x="31" y="16" width="6" height="2" fill="#323232"/><rect x="31" y="20" width="6" height="2" fill="#323232"/><rect x="31" y="24" width="6" height="2" fill="#323232"/></svg>