<svg xmlns="http://www.w3.org/2000/svg" viewBox="0 0 49 49"><title>seo-cow</title><path d="M24.5,0A24.5,24.5,0,1,0,49,24.5,24.5,24.5,0,0,0,24.5,0Zm0,47A22.5,22.5,0,1,1,47,24.5,22.53,22.53,0,0,1,24.5,47Z" fill="#323232"/><path d="M34.81,19.34a12.3,12.3,0,0,0,.43-9.48,1,1,0,0,0-1.83-.18c-1.27,2.27-4,5.93-6,6.09l-.08,0a16.24,16.24,0,0,0-2.79-.3,16.53,16.53,0,0,0-2.8.29l-.07,0c-2-.17-4.77-3.83-6-6.09a1,1,0,0,0-1.82.18,12.29,12.29,0,0,0,.43,9.48c-1.74.22-4,.78-4.76,2.19a2.19,2.19,0,0,0,0,2.2A2.46,2.46,0,0,0,11.79,25a7.12,7.12,0,0,0,2.35-.48,8.14,8.14,0,0,0,.13,1.61A34.46,34.46,0,0,0,16,31.3c.19.48.4,1,.51,1.32a14.86,14.86,0,0,0-.77,2.48,4.39,4.39,0,0,0,1.12,3.31c1.44,1.66,4,2.5,7.62,2.5s6.18-.84,7.62-2.5a4.39,4.39,0,0,0,1.12-3.31,14.65,14.65,0,0,0-.77-2.48c.11-.32.32-.84.51-1.32a34.56,34.56,0,0,0,1.75-5.2,8.48,8.48,0,0,0,.13-1.61,7.1,7.1,0,0,0,2.34.48,2.46,2.46,0,0,0,2.33-1.25,2.19,2.19,0,0,0,0-2.2C38.76,20.12,36.56,19.56,34.81,19.34Zm-1-6.63a9.47,9.47,0,0,1-1,6.11,9.9,9.9,0,0,0-.8-.87,6.92,6.92,0,0,0-1.89-1.26A16.92,16.92,0,0,0,33.86,12.71Zm-18.72,0a17,17,0,0,0,3.71,4A6.55,6.55,0,0,0,17,18a10.34,10.34,0,0,0-.77.87A9.51,9.51,0,0,1,15.14,12.71ZM11.21,22.77c-.09-.16-.06-.21,0-.25.22-.39,1.39-1,3.61-1.23a9.2,9.2,0,0,0-.3.88C13.21,22.84,11.48,23.26,11.21,22.77Zm21.56,3a33.4,33.4,0,0,1-1.65,4.84,17.43,17.43,0,0,0-.68,1.88l-.07.3.11.29a15.86,15.86,0,0,1,.77,2.35,2.4,2.4,0,0,1-.65,1.72c-.72.83-2.36,1.81-6.11,1.81s-5.39-1-6.11-1.81a2.4,2.4,0,0,1-.65-1.72A16.11,16.11,0,0,1,18.51,33l.11-.29-.07-.3a16.78,16.78,0,0,0-.68-1.88,33.56,33.56,0,0,1-1.65-4.84,7.21,7.21,0,0,1,2.15-6.36c1.51-1.53,4.93-1.87,6.12-1.87s4.54.34,6.14,1.89A7.1,7.1,0,0,1,32.77,25.73Zm5-3c-.26.48-2,.07-3.24-.59q-.13-.45-.3-.89c2.2.23,3.35.84,3.58,1.23C37.85,22.56,37.88,22.61,37.79,22.77Z" fill="#323232"/></svg>