<svg xmlns="http://www.w3.org/2000/svg" viewBox="0 0 32 32"><title>social-twitter</title><path d="M16,0A16,16,0,1,0,32,16,16,16,0,0,0,16,0Zm7.94,12.81c-.25,6.52-3.46,10.83-11,10.7h-.49c-.45,0-4.54-.44-5.34-1.82a7.33,7.33,0,0,0,5.12-1.14c-1-.29-2.92-.46-3.25-2.85a2.38,2.38,0,0,0,1.3.11C9,17,7.53,16.3,7.61,14.17a2.25,2.25,0,0,0,1.46.46c-.77-.23-2.15-3.24-1-4.78,2,1.79,4.07,3.48,7.8,3.64.23-2.21,1.24-3.7,3.17-4.32A3.61,3.61,0,0,1,23,10.31c.74-.22,1.45-.47,2.19-.69a2.19,2.19,0,0,1-.93,1.71,1.79,1.79,0,0,0,1.42-.48A2.92,2.92,0,0,1,23.94,12.81Z" fill="#fff"/></svg>