<svg xmlns="http://www.w3.org/2000/svg" viewBox="0 0 32 32"><title>social-insta</title><path d="M20.92,16a4.94,4.94,0,1,1-9.74-1.14h-.9V21.7h11.4V14.86h-.9A5,5,0,0,1,20.92,16Z" fill="#fff"/><path d="M16,18.66A2.66,2.66,0,1,0,13.32,16,2.66,2.66,0,0,0,16,18.66Z" fill="#fff"/><rect x="18.64" y="10.3" width="3.04" height="3.04" fill="#fff"/><path d="M16,0A16,16,0,1,0,32,16,16,16,0,0,0,16,0Zm8,21.7A2.28,2.28,0,0,1,21.68,24H10.28A2.28,2.28,0,0,1,8,21.7V10.3A2.29,2.29,0,0,1,10.28,8h11.4A2.29,2.29,0,0,1,24,10.3V21.7Z" fill="#fff"/></svg>