<svg xmlns="http://www.w3.org/2000/svg" viewBox="0 0 32 32"><title>social-vk</title><path d="M16.64,14.49a2.63,2.63,0,0,0,1-.19,1.17,1.17,0,0,0,.64-.56,2,2,0,0,0,.15-.8,1.55,1.55,0,0,0-.17-.7,1.08,1.08,0,0,0-.62-.52,3,3,0,0,0-1-.16h-2v3h.56Q16,14.52,16.64,14.49Z" fill="#fff"/><path d="M18.12,17.08A4.65,4.65,0,0,0,17,17H14.61v3.49h2.44a3.2,3.2,0,0,0,1.21-.25,1.47,1.47,0,0,0,.77-.62,1.87,1.87,0,0,0,.21-.9,1.75,1.75,0,0,0-.26-1A1.56,1.56,0,0,0,18.12,17.08Z" fill="#fff"/><path d="M16,0A16,16,0,1,0,32,16,16,16,0,0,0,16,0Zm6.6,20.53a3.73,3.73,0,0,1-1.12,1.33,5.26,5.26,0,0,1-1.82.89,10,10,0,0,1-2.52.26H11V9h5.44a19.39,19.39,0,0,1,2.48.11,5.13,5.13,0,0,1,1.56.5,2.75,2.75,0,0,1,1.19,1.09A3.28,3.28,0,0,1,21.54,14,3.51,3.51,0,0,1,20,15.25v.07a4,4,0,0,1,2.18,1.13A3.17,3.17,0,0,1,23,18.71,3.93,3.93,0,0,1,22.6,20.53Z" fill="#fff"/></svg>